<?xml version="1.0" encoding="UTF-8"?>
<svg width="140.27" height="143.44" fill="none" version="1.1" viewBox="0 0 140.27 143.44" xmlns="http://www.w3.org/2000/svg" xmlns:cc="http://creativecommons.org/ns#" xmlns:dc="http://purl.org/dc/elements/1.1/" xmlns:rdf="http://www.w3.org/1999/02/22-rdf-syntax-ns#">
 <metadata>
  <rdf:RDF>
   <cc:Work rdf:about="">
    <dc:format>image/svg+xml</dc:format>
    <dc:type rdf:resource="http://purl.org/dc/dcmitype/StillImage"/>
    <dc:title/>
   </cc:Work>
  </rdf:RDF>
 </metadata>
 <ellipse cx="67.173" cy="76.306" rx="67.173" ry="67.135" fill="#90c0ab"/>
 <path d="m110.03 126.33s15.264 6.625 30.243-3.164c0 0-11.2-2.558-16.8-17.749" fill="#90c0ab"/>
 <g transform="translate(-26 -29.28)" clip-path="url(#clip0_1359_6625)" fill="#5a6f70">
  <path d="m100.62 29.28h1.302v21.729h-1.302z"/>
  <path d="m100.62 111.63h1.302v21.729h-1.302z"/>
  <path d="m49.233 80.671h21.729v1.3026h-21.729z"/>
  <path d="m131.59 80.671h21.729v1.3026h-21.729z"/>
  <path d="m79.384 60.347-15.363-15.363 0.922-0.9221 15.363 15.363z"/>
  <path d="m137.61 118.58-15.368-15.368 0.922-0.922 15.368 15.368z"/>
  <path d="m64.938 118.58-0.9221-0.922 15.363-15.363 0.922 0.922z"/>
  <path d="m137.61 44.062 0.922 0.9221-15.363 15.363-0.922-0.922z"/>
 </g>
 <path d="m76.934 35.65-55.8 50.349c-1.1844 1.07-1.7079 2.69-1.3735 4.25s1.4761 2.823 2.995 3.314l71.524 23.124c1.522 0.497 3.193 0.143 4.382-0.928 1.19-1.07 1.716-2.694 1.381-4.258l-15.728-73.462c-0.329-1.5675-1.473-2.8389-2.997-3.3323-1.525-0.4934-3.197-0.1333-4.383 0.9439z" fill="#f7deb0"/>
 <path d="m68.383 84.769-5.9431-1.92c-0.5764-0.19-0.9015-0.799-0.7388-1.384l5.969-21.721c0.0826-0.2991 0.284-0.5515 0.5574-0.6986s0.5951-0.1761 0.8905-0.0803l7.8528 2.5472c0.295 0.0954 0.538 0.3069 0.673 0.5856 0.136 0.2787 0.151 0.6005 0.043 0.891l-7.8892 21.101c-0.2133 0.568-0.8372 0.868-1.4146 0.679z" fill="#f29476"/>
 <path d="m59.648 87.988c0.3741-1.156 1.6151-1.791 2.7717-1.417l3.8281 1.237c1.1566 0.374 1.7909 1.615 1.4167 2.771l-1.2373 3.824c-0.3742 1.157-1.6152 1.791-2.7717 1.417l-3.8282-1.237c-1.1566-0.374-1.7908-1.614-1.4166-2.771z" fill="#da8e90"/>
 <defs>
  <clipPath id="clip0_1359_6625">
   <rect transform="rotate(7.3722 5.6255 165.41)" width="165.52" height="165.52" fill="#fff"/>
  </clipPath>
 </defs>
</svg>
