<svg enable-background="new 0 0 231.123 99" version="1.1" viewBox="0 0 186.34 54.062" xml:space="preserve" xmlns="http://www.w3.org/2000/svg">
	<g id="logo-tomat-RGB" transform="translate(-22.107 -22.318)">
		<path d="m25.275 36.663c7.01-13.18 23.376-18.184 36.559-11.175 13.18 7.007 18.185 23.37 11.176 36.556-7.007 13.174-23.377 18.173-36.555 11.168-13.184-7.01-18.187-23.373-11.18-36.549" fill="#cf4520"/>
		<path d="m69.246 52.413c2.277-6.938-11.662-5.254-13.817-4.887 1.928-0.871 13.667-7.067 8.55-11.706 0 0-2.411-2.579-5.433-4.186-3.077-1.634-6.367-2.349-6.367-2.349-7.279-2.142-4.956 13.971-4.956 13.971s-5.952-15.388-11.95-8.903c0 0-2.329 2.431-3.963 5.505-1.608 3.025-2.16 6.514-2.16 6.514-1.568 8.107 12.399 5.072 14.542 4.705-1.974 0.893-16.068 6.478-9.529 12.08 0 0 2.434 2.327 5.51 3.965 3.024 1.609 6.511 2.16 6.511 2.16 7.845 1.696 5.042-12.098 4.67-14.265 0.905 2.001 6.183 14.198 11.85 9.194 0 0 2.58-2.407 4.187-5.434 1.637-3.073 2.355-6.364 2.355-6.364" fill="#fff"/>
		<g fill="#003a40">
			<path d="m53.86 36.231c0.473-0.827 1.654-1.042 2.652-0.484 0.997 0.562 1.433 1.684 0.964 2.512-0.465 0.834-2.874 3.319-3.872 2.758-0.997-0.562-0.207-3.95 0.256-4.786"/>
			<path d="m45.347 60.793c-0.469 0.835-1.649 1.051-2.653 0.485-0.993-0.559-1.43-1.684-0.962-2.512 0.465-0.831 2.875-3.318 3.875-2.758 0.997 0.561 0.204 3.956-0.26 4.785"/>
			<path d="m36.713 44.677c-0.83-0.463-1.048-1.646-0.487-2.646 0.563-0.998 1.686-1.43 2.517-0.963 0.829 0.467 3.317 2.874 2.754 3.873-0.56 0.999-3.95 0.206-4.784-0.264"/>
			<path d="m61.275 53.198c0.832 0.469 1.049 1.65 0.486 2.65-0.561 0.996-1.684 1.434-2.516 0.965-0.83-0.468-3.317-2.877-2.754-3.875 0.558-1 3.95-0.205 4.784 0.26"/>
		</g>
		<g fill="#003a40">
			<path d="m189.2 41.631c-0.354-0.251-0.941-0.376-1.766-0.376-0.875 0-1.527 0.172-1.938 0.508-0.41 0.338-0.615 0.83-0.615 1.479l0.266 1.275c-0.383-0.529-0.867-1.035-1.453-1.52-0.588-0.486-1.305-0.891-2.139-1.213-0.84-0.322-1.861-0.484-3.062-0.484-1.354 0-2.637 0.286-3.855 0.859-1.219 0.572-2.301 1.357-3.238 2.357-0.941 0.999-1.682 2.137-2.229 3.412-0.541 1.28-0.811 2.639-0.811 4.078 0 1.498 0.27 2.9 0.811 4.207 0.547 1.308 1.279 2.468 2.207 3.48 0.924 1.014 1.998 1.807 3.215 2.379 1.217 0.574 2.52 0.859 3.9 0.859 1.293 0 2.393-0.198 3.303-0.593 0.912-0.396 1.646-0.853 2.203-1.368 0.561-0.514 0.957-0.959 1.191-1.342l-0.309 1.451c0 0.561 0.205 1.002 0.615 1.324 0.41 0.321 1.045 0.484 1.896 0.484 0.822 0 1.418-0.117 1.783-0.355 0.367-0.23 0.594-0.553 0.682-0.968 0.09-0.409 0.135-0.864 0.135-1.366v-16.124c0-0.525-0.045-1.005-0.135-1.431-0.086-0.423-0.305-0.763-0.657-1.012zm-5.308 13.35c-0.486 0.867-1.127 1.549-1.918 2.049-0.793 0.499-1.689 0.746-2.689 0.746-1.086 0-2.062-0.247-2.928-0.746-0.869-0.5-1.551-1.176-2.053-2.029-0.496-0.848-0.746-1.805-0.746-2.861 0-1.088 0.244-2.064 0.727-2.931 0.486-0.865 1.154-1.558 2.004-2.073 0.852-0.512 1.822-0.768 2.91-0.768 0.998 0 1.9 0.24 2.711 0.727 0.807 0.483 1.459 1.152 1.957 2.004 0.502 0.853 0.75 1.85 0.75 2.996-1e-3 1.058-0.243 2.019-0.725 2.886z"/>
			<path d="m161.37 42.491c-1.16-0.854-2.594-1.278-4.295-1.278-1.031 0-1.955 0.181-2.775 0.55-0.824 0.366-1.543 0.867-2.16 1.5-0.617 0.629-1.176 1.326-1.672 2.092-0.471-0.882-1.023-1.631-1.656-2.25-0.629-0.613-1.352-1.083-2.158-1.406-0.807-0.322-1.695-0.485-2.664-0.485-0.705 0-1.383 0.116-2.025 0.352-0.648 0.235-1.23 0.542-1.742 0.927-0.516 0.381-0.947 0.764-1.299 1.146-0.355 0.381-0.605 0.732-0.752 1.055l0.396-1.232c0-0.766-0.197-1.323-0.592-1.676-0.398-0.352-1.023-0.529-1.873-0.529-0.822 0-1.426 0.121-1.807 0.353-0.385 0.237-0.617 0.546-0.707 0.926-0.086 0.383-0.131 0.81-0.131 1.276v16.479c0 0.472 0.045 0.911 0.131 1.323 0.09 0.41 0.316 0.733 0.682 0.97 0.369 0.231 0.951 0.351 1.744 0.351 0.852 0 1.459-0.109 1.828-0.331 0.365-0.218 0.604-0.534 0.705-0.944 0.102-0.412 0.152-0.854 0.152-1.322v-8.637c0-1.029 0.164-1.939 0.486-2.732s0.799-1.426 1.432-1.894c0.631-0.472 1.4-0.704 2.312-0.704 0.852 0 1.535 0.211 2.051 0.637 0.514 0.426 0.9 1.045 1.166 1.85 0.266 0.809 0.396 1.758 0.396 2.844v8.55c0 0.437 0.039 0.858 0.109 1.253 0.074 0.398 0.279 0.728 0.617 0.99 0.338 0.265 0.875 0.412 1.607 0.441 0.795 0.06 1.404-0.021 1.83-0.242 0.424-0.219 0.709-0.543 0.859-0.969 0.145-0.426 0.219-0.887 0.219-1.387v-8.592c0-1.146 0.176-2.115 0.527-2.908 0.357-0.793 0.848-1.404 1.477-1.83 0.633-0.426 1.389-0.637 2.27-0.637 0.824 0 1.49 0.217 2.008 0.66 0.512 0.438 0.902 1.057 1.166 1.848 0.262 0.795 0.396 1.736 0.396 2.822v8.55c0 0.499 0.043 0.944 0.133 1.341 0.088 0.396 0.32 0.721 0.703 0.969 0.383 0.252 0.984 0.375 1.807 0.375s1.418-0.119 1.785-0.351c0.367-0.236 0.602-0.55 0.705-0.948 0.102-0.396 0.154-0.847 0.154-1.345v-8.546c0-2.175-0.301-4.045-0.902-5.615-0.602-1.577-1.483-2.788-2.643-3.64z"/>
			<path d="m208.1 42.423c-0.236-0.365-0.551-0.6-0.947-0.703s-0.844-0.155-1.344-0.155l-3.57 0.104v-5.082c0-0.471-0.053-0.901-0.154-1.297-0.104-0.395-0.336-0.71-0.703-0.946-0.367-0.235-0.963-0.352-1.785-0.352-0.793 0-1.373 0.11-1.74 0.329-0.367 0.223-0.604 0.523-0.709 0.905-0.1 0.381-0.15 0.831-0.15 1.362v5.129l-1.807-0.018c-0.705 0-1.229 0.195-1.562 0.594-0.34 0.396-0.508 1.019-0.508 1.873 0 0.908 0.137 1.564 0.418 1.963 0.279 0.393 0.785 0.605 1.521 0.637l1.938-0.02v8.523c0 1.35 0.15 2.516 0.461 3.502 0.309 0.982 0.787 1.785 1.434 2.399 0.645 0.617 1.482 1.073 2.512 1.364 1.029 0.295 2.26 0.442 3.701 0.442 0.473 0 0.904-0.044 1.301-0.13 0.396-0.091 0.717-0.318 0.969-0.686 0.248-0.366 0.375-0.961 0.375-1.783 0-0.763-0.105-1.313-0.312-1.651-0.203-0.339-0.506-0.552-0.902-0.64s-0.871-0.131-1.43-0.131c-0.527 0-0.977-0.038-1.344-0.113-0.371-0.074-0.662-0.203-0.883-0.396-0.221-0.188-0.381-0.476-0.484-0.858-0.104-0.379-0.154-0.88-0.154-1.499v-8.336l3.613 0.054c0.498 0 0.941-0.05 1.326-0.153 0.379-0.104 0.686-0.346 0.922-0.725 0.234-0.385 0.35-0.955 0.35-1.721-4e-3 -0.822-0.119-1.417-0.353-1.785z"/>
			<path d="m124.48 42.423c-1.675-0.982-3.542-1.475-5.596-1.475-1.527 0-2.959 0.284-4.296 0.859-1.337 0.573-2.518 1.372-3.547 2.4-1.028 1.028-1.834 2.218-2.422 3.568-0.589 1.351-0.881 2.803-0.881 4.363 0 1.615 0.316 3.098 0.948 4.448 0.631 1.352 1.483 2.527 2.554 3.526 1.072 0.998 2.277 1.77 3.614 2.312 1.336 0.544 2.71 0.814 4.12 0.814 1.378 0 2.724-0.265 4.032-0.791 1.307-0.529 2.489-1.285 3.542-2.271 1.059-0.982 1.893-2.156 2.512-3.523 0.617-1.367 0.926-2.889 0.926-4.561 0-2.116-0.5-4.01-1.5-5.683-1.001-1.671-2.337-3.002-4.006-3.986zm-0.595 12.801c-0.573 0.91-1.307 1.607-2.204 2.092-0.896 0.482-1.829 0.729-2.797 0.729-1 0-1.946-0.246-2.842-0.729-0.897-0.484-1.623-1.172-2.181-2.07-0.56-0.895-0.837-1.961-0.837-3.194 0-1.114 0.256-2.121 0.772-3.019 0.512-0.896 1.209-1.602 2.092-2.113 0.88-0.515 1.864-0.771 2.952-0.771 1.146 0 2.159 0.25 3.039 0.748 0.881 0.5 1.579 1.189 2.093 2.07 0.513 0.881 0.769 1.895 0.769 3.041 1e-3 1.233-0.285 2.304-0.856 3.216z"/>
			<path d="m104.23 41.72c-0.396-0.103-0.844-0.155-1.345-0.155l-3.568 0.104v-5.082c0-0.471-0.052-0.901-0.154-1.297-0.104-0.395-0.339-0.71-0.705-0.946-0.368-0.235-0.963-0.352-1.784-0.352-0.794 0-1.374 0.11-1.741 0.329-0.368 0.223-0.601 0.523-0.704 0.905-0.104 0.381-0.155 0.831-0.155 1.362v5.129l-1.808-0.018c-0.704 0-1.225 0.195-1.563 0.594-0.338 0.396-0.506 1.019-0.506 1.873 0 0.908 0.14 1.564 0.417 1.963 0.28 0.393 0.786 0.605 1.522 0.637l1.938-0.02v8.523c0 1.35 0.155 2.516 0.463 3.502 0.307 0.982 0.783 1.785 1.431 2.399 0.643 0.617 1.482 1.073 2.513 1.364 1.026 0.295 2.26 0.442 3.699 0.442 0.47 0 0.902-0.044 1.299-0.13 0.397-0.091 0.72-0.318 0.971-0.686 0.249-0.366 0.373-0.961 0.373-1.783 0-0.763-0.104-1.313-0.308-1.651-0.206-0.339-0.506-0.552-0.903-0.64s-0.874-0.131-1.432-0.131c-0.528 0-0.978-0.038-1.343-0.113-0.368-0.074-0.662-0.203-0.881-0.396-0.221-0.188-0.383-0.476-0.485-0.858-0.104-0.379-0.155-0.88-0.155-1.499v-8.336l3.614 0.054c0.499 0 0.939-0.05 1.321-0.153 0.381-0.104 0.691-0.346 0.925-0.725 0.235-0.385 0.352-0.955 0.352-1.721 0-0.822-0.117-1.417-0.352-1.785-0.233-0.365-0.55-0.6-0.946-0.703z"/>
		</g>
	</g>
	<g id="Plan_de_travail" transform="translate(-22.107 -22.318)">
		<rect x=".062" y="-.028" width="231" height="98.998" fill="none"/>
	</g>
</svg>
