<svg width="255" height="69" viewBox="0 0 255 69" fill="none" xmlns="http://www.w3.org/2000/svg">
<g clip-path="url(#clip0_1572_3202)">
<path d="M159.318 67.26H148.281V65.9153C148.281 57.2539 148.281 48.5926 148.281 39.9313C148.274 38.7491 148.18 37.569 148.001 36.4003C147.627 33.9235 145.38 32.1086 143.372 31.836C141.954 31.6444 140.588 31.5875 139.234 32.0038C136.674 32.7914 135.386 34.7202 134.659 37.3287C134.306 38.7081 134.145 40.1288 134.18 41.5516C134.204 49.6768 134.18 57.802 134.18 65.9272V67.221H123.287V65.9302C123.287 56.8975 123.287 47.8649 123.287 38.8322C123.295 37.294 122.898 35.7804 122.135 34.4416C121.582 33.4222 120.677 32.6352 119.587 32.2254C118.617 31.8216 117.574 31.62 116.523 31.6329C115.471 31.6457 114.434 31.8729 113.474 32.3003C111.188 33.3036 109.855 35.1904 109.346 37.6612C109.034 39.1753 108.873 40.716 108.863 42.2614C108.818 50.138 108.842 58.0147 108.842 65.8943V67.2151H98.2027V23.3095H108.785V27.8528H110.389C111.824 25.2233 114.15 23.6599 116.948 22.8543C117.731 22.6253 118.544 22.5123 119.361 22.5188C120.993 22.5026 122.624 22.5836 124.246 22.7614C125.829 22.9651 127.235 23.7498 128.528 24.7441C129.979 25.8397 131.144 27.264 131.927 28.898H133.688C134.533 26.8705 136.055 25.4838 137.687 24.2439C138.853 23.4003 140.226 22.8831 141.662 22.7465C143.049 22.5616 144.448 22.4795 145.847 22.5009C149.768 22.6057 153.323 24.0463 155.914 27.2089C157.564 29.2572 158.602 31.725 158.908 34.3308C159.3 37.2628 159.324 40.2069 159.324 43.1539C159.324 50.741 159.324 58.3281 159.324 65.9153L159.318 67.26Z" fill="white"/>
<path d="M20.9318 11.0363H0V0H53.6369V11.0003H32.7865V67.224H20.9318V11.0363Z" fill="white"/>
<path d="M212.47 58.3051V67.4576C212.202 67.4983 211.932 67.5253 211.662 67.5385C209.328 67.5385 206.99 67.6253 204.662 67.5175C202.6 67.4187 200.603 66.9634 199.029 65.442C198.073 64.5196 197.434 63.4654 197.494 62.0817C197.467 61.9316 197.42 61.7856 197.355 61.6474H195.624C195.323 62.1626 194.955 62.7466 194.605 63.3336C192.603 66.6669 189.478 68.1255 185.763 68.5268C184.287 68.7294 182.795 68.8026 181.306 68.7454C176.927 68.4459 172.862 67.2479 169.629 64.0434C167.894 62.2853 166.722 60.0562 166.261 57.6372C165.633 54.5884 165.817 51.5426 167.105 48.7094C168.311 46.0379 170.347 44.0792 173.064 42.7854C174.969 41.8807 176.992 41.2456 179.074 40.8986C180.591 40.6803 182.123 40.5802 183.655 40.5991C187.153 40.5602 190.654 40.5991 194.153 40.5991H195.452C195.576 38.4278 195.597 36.3793 194.569 34.4206C194.148 33.5705 193.532 32.831 192.769 32.2622C192.007 31.6934 191.12 31.3113 190.181 31.1472C188.64 30.8364 187.061 30.7516 185.495 30.8956C182.066 31.255 179.665 33.1028 178.498 36.4122C178.432 36.6039 178.341 36.7896 178.284 36.9843C178.227 37.1789 178.203 37.3646 178.13 37.73L167.612 34.2259C168.341 32.8363 169.002 31.5305 169.695 30.2517C170.902 28.0235 172.681 26.3343 174.801 25.0076C177.115 23.5599 179.696 22.5855 182.394 22.1414C185.105 21.7126 187.861 21.6391 190.591 21.9228C194.605 22.2942 198.335 23.6449 201.466 26.2744C203.45 27.9426 204.677 30.1678 205.473 32.6117C205.999 34.2103 206.268 35.8807 206.273 37.5623C206.288 43.4982 206.384 49.4312 206.463 55.3671C206.44 55.8599 206.501 56.3531 206.644 56.8256C207.039 57.8559 207.904 58.2812 208.969 58.2991C210.097 58.3201 211.218 58.3051 212.47 58.3051ZM195.513 49.0867C195.211 49.0628 195.063 49.0388 194.91 49.0388C190.989 49.0388 187.087 49.0388 183.179 49.0688C182.481 49.0638 181.786 49.1535 181.113 49.3353C179.463 49.8175 178.121 50.7819 177.524 52.4291C176.493 55.2683 178.154 58.0715 180.799 59.0598C182.473 59.6828 184.204 59.575 185.926 59.557C188.549 59.527 190.751 58.5028 192.66 56.7687C194.879 54.7412 195.507 52.0936 195.513 49.0867Z" fill="white"/>
<path d="M255 22.5637V32.6446H238.347V67.221H227.024V32.7015H210.371V22.5637H255Z" fill="white"/>
<path d="M67.2286 26.4631C75.2593 28.6195 84.6502 36.6459 84.3335 44.7921C84.7437 54.6753 75.956 63.3216 65.9077 63.3875C55.6544 63.4534 47.1683 54.7232 47.1291 44.9328C47.0989 37.3736 52.1291 30.5752 58.9505 27.7689L67.2286 26.4631C93.0669 26.7117 69.2008 20.054 70.2443 19.6198L49.2521 27.0262C37.9282 38.4728 40.1267 53.7109 48.7304 61.9889C57.684 70.6023 71.8094 71.8722 82.2467 62.4951C87.9312 57.4037 90.4885 50.8149 89.9608 43.1778C89.4361 35.6366 85.8534 29.7007 79.8341 25.0615" fill="white"/>
<path d="M84.3335 44.7921C84.7437 54.6753 75.956 63.3216 65.9077 63.3875C55.6544 63.4534 47.1683 54.7232 47.1291 44.9328C47.0899 35.0765 55.6574 26.4991 65.576 26.4002C75.8233 26.3014 84.7135 35.0616 84.3335 44.7921ZM55.1448 38.8621C55.1617 39.8563 55.561 40.8064 56.2608 41.5176C56.9606 42.2287 57.9079 42.647 58.9083 42.6866C60.9801 42.7465 62.8287 40.9346 62.8287 38.8501C62.8287 37.839 62.4242 36.8692 61.7043 36.1543C60.9844 35.4393 60.0079 35.0376 58.9897 35.0376C57.9716 35.0376 56.9951 35.4393 56.2752 36.1543C55.5552 36.8692 55.1508 37.839 55.1508 38.8501L55.1448 38.8621Z" fill="#F3501F"/>
<path d="M37.88 30.7668C40.8444 29.8953 43.2509 28.0714 45.4192 25.7414C46.9542 24.0972 48.5464 22.5068 50.193 21.0034C51.7234 19.6037 53.7106 18.7988 55.7901 18.7362C58.0724 18.647 60.3543 18.9231 62.5482 19.5539L62.2708 13.1477L63.5917 12.3541L63.8932 19.4999C65.1417 19.0477 66.2093 18.6973 67.2557 18.281C71.0856 16.7566 74.7949 17.2717 78.468 19.1076C81.4686 20.6051 84.4662 22.1415 87.7232 22.8123C88.1785 22.9052 88.6279 23.0669 89.3034 23.2616C88.4982 23.618 87.8679 23.9444 87.2105 24.181C83.2901 25.5976 79.418 26.5051 75.4493 25.2113C73.4302 24.5097 71.3478 24.0022 69.231 23.6958C67.8227 23.5221 66.3571 23.9744 64.9186 24.172C64.3154 24.2559 63.6942 24.5434 63.0881 24.5164C58.9355 24.3248 55.0965 25.6365 51.3088 27.3047C48.3293 28.6195 45.2774 28.8022 42.2799 30.069C40.9068 30.7026 39.3834 30.9442 37.88 30.7668Z" fill="#5EA069"/>
</g>
<defs>
<clipPath id="clip0_1572_3202">
<rect width="255" height="69" fill="white"/>
</clipPath>
</defs>
</svg>
