<svg id="Calque_1" data-name="Calque 1" xmlns="http://www.w3.org/2000/svg" width="845.58" height="230.39" viewBox="0 0 845.58 230.39">
  <defs>
    <style>
      .cls-1 {
        fill: #0d3737;
      }

      .cls-2 {
        fill: #f3501f;
      }

      .cls-3 {
        fill: #5ea069;
      }
    </style>
  </defs>
  <g>
    <path class="cls-1" d="M528.3,224.58H491.7v-4.49q0-43.38,0-86.76a81.7,81.7,0,0,0-.93-11.79c-1.24-8.27-8.69-14.33-15.35-15.24-4.7-.64-9.23-.83-13.72.56-8.49,2.63-12.76,9.07-15.17,17.78a52.14,52.14,0,0,0-1.59,14.1c.08,27.13,0,54.26,0,81.39v4.32H408.82v-4.31q0-45.24,0-90.48A29.47,29.47,0,0,0,405,115a16.05,16.05,0,0,0-8.45-7.4,25.47,25.47,0,0,0-20.27.25c-7.58,3.35-12,9.65-13.69,17.9a79.13,79.13,0,0,0-1.6,15.36c-.15,26.3-.07,52.6-.07,78.91v4.41H325.64V77.83h35.09V93h5.32c4.76-8.78,12.47-14,21.75-16.69a27.54,27.54,0,0,1,8-1.12A135.33,135.33,0,0,1,412,76c5.25.68,9.91,3.3,14.2,6.62a37.88,37.88,0,0,1,11.27,13.87h5.84c2.8-6.77,7.85-11.4,13.26-15.54a26.71,26.71,0,0,1,13.18-5,93.53,93.53,0,0,1,13.88-.82c13,.35,24.79,5.16,33.38,15.72a46.73,46.73,0,0,1,9.93,23.78c1.3,9.79,1.38,19.62,1.38,29.46q0,38,0,76Z"/>
    <path class="cls-1" d="M69.41,36.85H0V0H177.86V36.73H108.72V224.46H69.41Z"/>
    <path class="cls-1" d="M704.55,194.68v30.56a26.15,26.15,0,0,1-2.68.27c-7.74,0-15.49.29-23.21-.07-6.84-.33-13.46-1.85-18.68-6.93-3.17-3.08-5.29-6.6-5.09-11.22a5.84,5.84,0,0,0-.46-1.45h-5.74c-1,1.72-2.22,3.67-3.38,5.63-6.64,11.13-17,16-29.32,17.34a84.21,84.21,0,0,1-14.78.73c-14.52-1-28-5-38.72-15.7a41.61,41.61,0,0,1-11.17-21.39c-2.08-10.18-1.47-20.35,2.8-29.81,4-8.92,10.75-15.46,19.76-19.78a74.92,74.92,0,0,1,19.93-6.3,97.42,97.42,0,0,1,15.19-1c11.6-.13,23.21,0,34.81,0h4.31c.41-7.25.48-14.09-2.93-20.63A20.09,20.09,0,0,0,630.64,104a53.38,53.38,0,0,0-15.54-.84c-11.37,1.2-19.33,7.37-23.2,18.42-.22.64-.52,1.26-.71,1.91s-.27,1.27-.51,2.49L555.8,114.28c2.42-4.64,4.61-9,6.91-13.27,4-7.44,9.9-13.08,16.93-17.51a68.14,68.14,0,0,1,25.18-9.57A104,104,0,0,1,632,73.2c13.31,1.24,25.68,5.75,36.06,14.53,6.58,5.57,10.65,13,13.29,21.16A53.72,53.72,0,0,1,684,125.42c.05,19.82.37,39.63.63,59.45a14.61,14.61,0,0,0,.6,4.87c1.31,3.44,4.18,4.86,7.71,4.92C696.68,194.73,700.4,194.68,704.55,194.68ZM648.32,163.9c-1-.08-1.49-.16-2-.16-13,0-25.94,0-38.9.1a25.4,25.4,0,0,0-6.85.89c-5.47,1.61-9.92,4.83-11.9,10.33-3.42,9.48,2.09,18.84,10.86,22.14,5.55,2.08,11.29,1.72,17,1.66,8.7-.1,16-3.52,22.33-9.31C646.22,182.78,648.3,173.94,648.32,163.9Z"/>
    <path class="cls-1" d="M845.58,75.34V109H790.36V224.45H752.81V109.19H697.59V75.34Z"/>
    <path class="cls-1" d="M222.93,88.36c26.63,7.2,57.77,34,56.72,61.2,1.36,33-27.78,61.87-61.1,62.09-34,.22-62.14-28.93-62.27-61.62-.1-25.24,16.58-47.94,39.2-57.31l27.45-4.36c85.68.83,6.54-21.4,10-22.85L163.32,90.24c-37.55,38.22-30.26,89.1-1.73,116.74,29.69,28.76,76.53,33,111.14,1.69,18.85-17,27.33-39,25.58-64.5-1.74-25.18-13.62-45-33.58-60.49"/>
    <path class="cls-2" d="M279.65,149.56c1.36,33-27.78,61.87-61.1,62.09-34,.22-62.14-28.93-62.27-61.62-.13-32.91,28.28-61.55,61.17-61.88C251.43,87.82,280.91,117.07,279.65,149.56Zm-96.79-19.8a13,13,0,0,0,12.48,12.77c6.87.2,13-5.85,13-12.81a12.73,12.73,0,1,0-25.46,0Z"/>
  </g>
  <path class="cls-3" d="M125.61,102.73c9.83-2.91,17.81-9,25-16.78,5.09-5.49,10.37-10.8,15.83-15.82A28.68,28.68,0,0,1,185,62.56a70.6,70.6,0,0,1,22.41,2.73l-.92-21.39,4.38-2.65,1,23.86c4.14-1.51,7.68-2.68,11.15-4.07,12.7-5.09,25-3.37,37.18,2.76,9.95,5,19.89,10.13,30.69,12.37,1.51.31,3,.85,5.24,1.5-2.67,1.19-4.76,2.28-6.94,3.07-13,4.73-25.84,7.76-39,3.44a110.84,110.84,0,0,0-20.62-5.06c-4.67-.58-9.53.93-14.3,1.59-2,.28-4.06,1.24-6.07,1.15-13.77-.64-26.5,3.74-39.06,9.31-9.88,4.39-20,5-29.94,9.23A27.05,27.05,0,0,1,125.61,102.73Z"/>
</svg>
