<svg version="1.1" viewBox="0 0 99 99" xmlns="http://www.w3.org/2000/svg">
  <path d="m11.833 29.48c11.062-20.799 36.89-28.696 57.694-17.635 20.799 11.058 28.698 36.88 17.637 57.689-11.058 20.79-36.891 28.679-57.687 17.624-20.804-11.062-28.699-36.885-17.643-57.678" fill="#cf4520" stroke-width="1.5781"/>
  <path d="m81.226 54.335c3.5918-10.949-18.405-8.2913-21.806-7.7122 3.0426-1.3745 21.568-11.152 13.493-18.473 0 0-3.8048-4.0699-8.5738-6.6059-4.8558-2.5786-10.048-3.707-10.048-3.707-11.487-3.3803-7.8211 22.048-7.8211 22.048s-9.3929-24.284-18.858-14.05c0 0-3.6754 3.8364-6.254 8.6874-2.5376 4.7738-3.4087 10.28-3.4087 10.28-2.4745 12.794 19.567 8.0041 22.949 7.425-3.1152 1.4092-25.357 10.223-15.038 19.063 0 0 3.8411 3.6722 8.6953 6.2572 4.7722 2.5392 10.275 3.4087 10.275 3.4087 12.38 2.6765 7.9568-19.092 7.3697-22.512 1.4282 3.1578 9.7574 22.406 18.7 14.509 0 0 4.0715-3.7985 6.6075-8.5754 2.5834-4.8495 3.718-10.043 3.718-10.043" fill="#fff" stroke-width="1.5781"/>
  <g fill="#003a40" stroke-width="1.5781">
    <path d="m56.943 28.798c0.74644-1.3051 2.6102-1.6444 4.1851-0.7638 1.5734 0.88689 2.2614 2.6575 1.5213 3.9642-0.73382 1.3161-4.5355 5.2377-6.1104 4.3524-1.5718-0.88689-0.32509-6.2335 0.40399-7.5528"/>
    <path d="m43.511 67.559c-0.74013 1.3177-2.6023 1.6586-4.1867 0.76538-1.5671-0.88216-2.2567-2.6575-1.5181-3.9642 0.73382-1.3114 4.537-5.2361 6.1151-4.3524 1.5734 0.88531 0.32035 6.243-0.41031 7.5512"/>
    <path d="m29.884 42.127c-1.3098-0.73066-1.6538-2.5976-0.76854-4.1757 0.88847-1.5749 2.6607-2.2567 3.9721-1.5197 1.3082 0.73697 5.2346 4.5355 4.3461 6.112-0.88374 1.5765-6.2335 0.32509-7.5496-0.41662"/>
    <path d="m68.647 55.574c1.313 0.74013 1.6554 2.6039 0.76538 4.182-0.88531 1.5718-2.6591 2.263-3.9705 1.5229-1.3098-0.73855-5.2346-4.5402-4.3461-6.1151 0.88216-1.5781 6.2351-0.32351 7.5512 0.41031"/>
  </g>
</svg>
